<svg width="62" height="38" viewBox="0 0 62 38" fill="none" xmlns="http://www.w3.org/2000/svg">
<path d="M49.9362 3.7894C50.0518 3.09591 50.4976 2.2951 51.2736 1.38696C52.0497 0.478827 53.0074 0.0165033 54.1467 -7.62939e-06C54.7246 -7.62939e-06 55.2529 0.148597 55.7318 0.445805C56.2106 0.743013 56.5656 1.11452 56.7968 1.56034C57.4903 0.520106 58.3241 -7.62939e-06 59.2983 -7.62939e-06C59.9092 -7.62939e-06 60.4376 0.18162 60.8834 0.544874C61.3292 0.908129 61.5604 1.39522 61.5769 2.00615C61.5769 2.48498 61.4613 2.87301 61.2301 3.17021C60.999 3.46742 60.7761 3.64905 60.5614 3.7151C60.3468 3.78114 60.1569 3.81417 59.9918 3.81417C59.678 3.81417 59.4221 3.72335 59.224 3.54172C59.0258 3.3601 58.9268 3.12068 58.9268 2.82347C58.9268 2.06394 59.3396 1.54382 60.1651 1.26313C59.9835 1.04848 59.6533 0.941152 59.1744 0.941152C58.9598 0.941152 58.8029 0.957664 58.7039 0.990686C58.0764 1.25487 57.6141 1.79975 57.3169 2.62533C56.3262 6.27439 55.8308 8.40438 55.8308 9.01531C55.8308 9.47763 55.9629 9.80787 56.2271 10.006C56.4913 10.2041 56.7803 10.3032 57.094 10.3032C57.7049 10.3032 58.3076 10.0308 58.902 9.48589C59.4964 8.94101 59.9009 8.27229 60.1156 7.47973C60.1651 7.31462 60.2147 7.2238 60.2642 7.20729C60.3137 7.19078 60.4458 7.17427 60.6605 7.15776H60.7595C61.0072 7.15776 61.1311 7.2238 61.1311 7.3559C61.1311 7.37241 61.1145 7.46322 61.0815 7.62834C60.8173 8.5695 60.3055 9.40333 59.5459 10.1298C58.7864 10.8563 57.903 11.2196 56.8958 11.2196C55.74 11.2196 54.8649 10.6995 54.2705 9.65926C53.5935 10.683 52.8175 11.1948 51.9424 11.1948H51.7938C50.9847 11.1948 50.4068 10.9802 50.06 10.5509C49.7133 10.1216 49.5317 9.66752 49.5152 9.18868C49.5152 8.66031 49.672 8.23101 49.9857 7.90078C50.2995 7.57055 50.671 7.40543 51.1003 7.40543C51.8103 7.40543 52.1653 7.75217 52.1653 8.44566C52.1653 8.77589 52.0662 9.06484 51.8681 9.31252C51.6699 9.56019 51.48 9.72531 51.2984 9.80787C51.1168 9.89042 51.0095 9.9317 50.9764 9.9317L50.9021 9.95647C50.9021 9.97298 50.9517 10.006 51.0507 10.0555C51.1498 10.1051 51.2819 10.1629 51.447 10.2289C51.6121 10.295 51.769 10.3197 51.9176 10.3032C52.512 10.3032 53.0239 9.9317 53.4532 9.18868C53.6018 8.9245 53.7917 8.3631 54.0228 7.5045C54.254 6.6459 54.4851 5.75427 54.7163 4.82963C54.9475 3.90498 55.0796 3.3601 55.1126 3.19498C55.1951 2.74917 55.2364 2.42719 55.2364 2.22905C55.2364 1.76673 55.1126 1.4365 54.8649 1.23836C54.6172 1.04022 54.3365 0.941152 54.0228 0.941152C53.3624 0.941152 52.7432 1.20534 52.1653 1.73371C51.5874 2.26208 51.1828 2.93905 50.9517 3.76463C50.9187 3.91323 50.8774 3.99579 50.8278 4.0123C50.7783 4.02882 50.6462 4.04533 50.4316 4.06184H50.0848C49.9857 3.96277 49.9362 3.87196 49.9362 3.7894Z" fill="white"/>
<path d="M11.9731 8.35017C11.9731 8.16162 11.0774 8.03592 9.28619 7.97306C8.53199 7.97306 8.04489 7.95735 7.82492 7.92593C7.60494 7.8945 7.49495 7.73737 7.49495 7.45455C7.49495 7.42312 7.52637 7.25028 7.58923 6.93603C7.62065 6.84175 7.65208 6.73176 7.6835 6.60606C7.71493 6.48036 7.73064 6.4018 7.73064 6.37037C7.73064 6.33895 7.76206 6.26038 7.82492 6.13468C7.88777 6.00898 7.91919 5.96184 7.91919 5.99327C7.91919 6.02469 7.98204 5.99327 8.10774 5.89899C8.23345 5.80471 8.31201 5.77329 8.34343 5.80471C8.37486 5.83614 8.50056 5.83614 8.72054 5.80471C8.94052 5.77329 9.12907 5.75758 9.28619 5.75758C9.47475 5.75758 9.94613 5.75758 10.7003 5.75758C11.4545 5.75758 12.1616 5.77329 12.8215 5.80471C15.3042 5.80471 16.734 5.80471 17.1111 5.80471C17.4882 5.80471 17.7396 5.88328 17.8653 6.04041C17.8967 6.16611 18.4781 10.5971 19.6094 19.3333L21.3064 32.4848L22.3906 30.7407C23.1448 29.6094 24.1504 28.0382 25.4074 26.0269C26.6644 24.0157 28.0471 21.8159 29.5556 19.4276C35.055 10.6599 37.8361 6.24467 37.899 6.18182C37.9304 6.15039 37.9776 6.10325 38.0404 6.04041C38.1033 5.97755 38.1661 5.93042 38.229 5.89899L38.5118 5.80471H43.037C43.5713 5.80471 44.1998 5.80471 44.9226 5.80471C45.6453 5.80471 46.101 5.789 46.2896 5.75758C47.358 5.75758 47.8923 5.93042 47.8923 6.27609C47.8923 6.43322 47.8451 6.70034 47.7508 7.07744C47.6566 7.45455 47.6094 7.65881 47.6094 7.69024C47.4837 7.87879 46.9024 7.97306 45.8653 7.97306C44.6083 8.00449 43.807 8.05163 43.4613 8.11448C43.1156 8.17733 42.8328 8.35017 42.6128 8.633C42.5185 8.79012 41.3872 13.2368 39.2189 21.9731C37.0505 30.7093 35.9506 35.1246 35.9192 35.2189C35.9192 35.3446 35.9349 35.4231 35.9663 35.4545C35.9978 35.486 36.1077 35.5488 36.2963 35.6431C36.4848 35.7374 36.752 35.7688 37.0976 35.7374C37.4433 35.7059 37.9618 35.7374 38.6532 35.8316H40.1145C40.303 36.1145 40.3973 36.2873 40.3973 36.3502C40.3973 36.853 40.2873 37.3244 40.0673 37.7643C39.9102 37.9214 39.6588 38 39.3131 38C39.156 38 38.5118 37.9843 37.3805 37.9529C36.2492 37.9214 34.8036 37.9057 33.0438 37.9057C31.1268 37.9057 29.6813 37.9057 28.7071 37.9057C27.7329 37.9057 27.1829 37.9214 27.0572 37.9529C26.523 37.9529 26.2559 37.7957 26.2559 37.4815C26.2559 37.4186 26.2873 37.1987 26.3502 36.8215C26.4759 36.3187 26.6016 36.0359 26.7273 35.9731C26.853 35.9102 27.2144 35.8631 27.8114 35.8316C28.6599 35.8316 29.6027 35.7845 30.6397 35.6902C31.0797 35.596 31.3782 35.4074 31.5354 35.1246C31.5982 34.9989 32.1953 32.7048 33.3266 28.2424C34.4579 23.78 35.5735 19.3333 36.6734 14.9024C37.7733 10.4714 38.3232 8.25589 38.3232 8.25589L29.1785 22.8215C23.0191 32.6263 19.8608 37.6072 19.7037 37.7643C19.6409 37.7957 19.578 37.8272 19.5152 37.8586C19.358 37.9529 19.1066 38 18.7609 38C18.2896 38 18.0067 37.89 17.9125 37.67C17.8496 37.5443 17.2054 32.6734 15.9798 23.0572L14.1414 8.58586L10.936 21.3131C8.83053 29.6723 7.77778 33.9933 7.77778 34.2761C7.96633 35.3131 9.09764 35.8316 11.1717 35.8316H11.6431C11.8316 35.9888 11.9416 36.1302 11.9731 36.2559C12.0045 36.3816 11.9574 36.6644 11.8316 37.1044C11.7059 37.6072 11.5802 37.89 11.4545 37.9529C11.3288 37.9843 11.156 38 10.936 38C10.8732 38 10.6846 38 10.3704 38C10.0561 38 9.52188 37.9843 8.76768 37.9529C8.01347 37.9214 7.00786 37.9057 5.75084 37.9057C4.80808 37.9057 3.83389 37.9214 2.82828 37.9529C1.82267 37.9843 1.2413 38 1.08418 38C0.612795 38 0.314254 37.9686 0.188552 37.9057C0.0628507 37.8429 0 37.7015 0 37.4815C0 37.4186 0.047138 37.1987 0.141414 36.8215C0.23569 36.4444 0.314254 36.2088 0.377104 36.1145C0.439955 35.9259 0.785634 35.8316 1.41414 35.8316C3.61392 35.8316 5.01235 35.2031 5.60943 33.9461C5.73513 33.7576 6.8193 29.5466 8.86195 21.3131C10.9046 13.0797 11.9416 8.7587 11.9731 8.35017Z" fill="white"/>
</svg>
