<svg width="100" height="100" viewBox="0 0 100 100" fill="none" xmlns="http://www.w3.org/2000/svg">
<path fill-rule="evenodd" clip-rule="evenodd" d="M65.9324 1.81818H34.0675C23.3597 1.81818 18.8265 1.86021 13.9632 3.38025C9.0595 5.19406 5.19406 9.0595 3.38025 13.9632C1.86021 18.8265 1.81818 23.3605 1.81818 34.0675V65.9324C1.81818 76.6401 1.86019 81.1726 3.38027 86.0369C5.19417 90.9407 9.05969 94.806 13.9631 96.6189C18.8263 98.1397 23.3591 98.1818 34.0675 98.1818H65.9324C76.6406 98.1818 81.1727 98.1398 86.0369 96.6189C90.9403 94.806 94.8058 90.9407 96.6197 86.0369C98.1398 81.1726 98.1818 76.6401 98.1818 65.9324V34.0675C98.1818 23.3605 98.1398 18.8265 96.6197 13.9631C94.8059 9.05951 90.9405 5.1941 86.0369 3.38028C81.1726 1.8602 76.6401 1.81818 65.9324 1.81818ZM86.6234 1.6587C92.0606 3.65514 96.3448 7.93935 98.3413 13.3765C99.9751 18.577 100 23.4162 100 34.0675V65.9324C100 76.5845 99.9751 81.4221 98.3413 86.6235C96.3448 92.0608 92.0605 96.3449 86.6234 98.3404C81.4221 99.9751 76.5848 100 65.9324 100H34.0675C23.4151 100 18.577 99.9751 13.3766 98.3404C7.93952 96.3449 3.6552 92.0608 1.6587 86.6234C0.0249012 81.4221 0 76.5845 0 65.9324V34.0675C0 23.4162 0.0249152 18.5771 1.65869 13.3766C3.65514 7.93939 7.93939 3.65514 13.3766 1.65869C18.5771 0.0249141 23.4154 0 34.0675 0H65.9324C76.5845 0 81.4221 0.0249012 86.6234 1.6587Z" fill="white"/>
<path fill-rule="evenodd" clip-rule="evenodd" d="M65.9324 1.81818H34.0675C23.3597 1.81818 18.8265 1.86021 13.9632 3.38025C9.0595 5.19406 5.19406 9.0595 3.38025 13.9632C1.86021 18.8265 1.81818 23.3605 1.81818 34.0675V65.9324C1.81818 76.6401 1.86019 81.1726 3.38027 86.0369C5.19417 90.9407 9.05969 94.806 13.9631 96.6189C18.8263 98.1397 23.3591 98.1818 34.0675 98.1818H61.8182C66.1843 98.1818 68.7676 97.2975 70.3053 95.7598C71.8429 94.2222 72.7273 91.6389 72.7273 87.2727C72.7273 82.548 73.6611 78.7676 76.2144 76.2144C78.7676 73.6611 82.548 72.7273 87.2727 72.7273C91.6389 72.7273 94.2222 71.8429 95.7598 70.3053C97.2975 68.7676 98.1818 66.1843 98.1818 61.8182V34.0675C98.1818 23.3605 98.1398 18.8265 96.6197 13.9631C94.8059 9.05951 90.9405 5.1941 86.0369 3.38028C81.1726 1.8602 76.6401 1.81818 65.9324 1.81818ZM86.6234 1.6587C92.0606 3.65514 96.3448 7.93935 98.3413 13.3765C99.9751 18.577 100 23.4162 100 34.0675V61.8182C100 70.9091 96.3636 74.5455 87.2727 74.5455C78.1818 74.5455 74.5455 78.1818 74.5455 87.2727C74.5455 96.3636 70.9091 100 61.8182 100H34.0675C23.4151 100 18.577 99.9751 13.3766 98.3404C7.93953 96.3449 3.6552 92.0608 1.6587 86.6234C0.0249011 81.4221 0 76.5845 0 65.9324V34.0675C0 23.4162 0.0249152 18.5771 1.65869 13.3766C3.65514 7.93939 7.93939 3.65514 13.3766 1.65869C18.5771 0.0249142 23.4154 0 34.0675 0H65.9324C76.5845 0 81.4221 0.0249011 86.6234 1.6587Z" fill="white"/>
<path d="M75.4546 77.2727H92.7273V94.5454H75.4546V77.2727Z" fill="white"/>
<path d="M79.0909 74.5455H98.1819V78.1819H79.0909V74.5455Z" fill="white"/>
<path d="M77.2728 75.4545H96.3637V79.0908H77.2728V75.4545Z" fill="white"/>
<path d="M80.9091 73.6364H99.0909V77.2727H80.9091V73.6364Z" fill="white"/>
<path d="M74.5454 80H87.2727V97.2727H74.5454V80Z" fill="white"/>
<path d="M70.9091 95.4545H85.4545V98.1817H70.9091V95.4545Z" fill="white"/>
<path d="M72.7272 86.3636H87.2727V96.3636H72.7272V86.3636Z" fill="white"/>
<path d="M69.0909 97.2727H84.5455V98.1818H69.0909V97.2727Z" fill="white"/>
<path d="M91.8182 77.2727H93.6364V93.6363H91.8182V77.2727Z" fill="white"/>
<path d="M87.2728 94.5455H90V96.3637H87.2728V94.5455Z" fill="white"/>
<path d="M89.0909 75.4545H94.5455V91.8181H89.0909V75.4545Z" fill="white"/>
<path d="M96.3636 70H98.1818V86.3636H96.3636V70Z" fill="white"/>
<path d="M94.5454 74.5455H96.3636V90.0001H94.5454V74.5455Z" fill="white"/>
<path d="M93.6364 71.8181H97.2727V89.0908H93.6364V71.8181Z" fill="white"/>
</svg>
